<svg xmlns="http://www.w3.org/2000/svg" viewBox="0 0 900 900"><title>CA White transparent</title><g id="Layer_2" data-name="Layer 2"><g id="Layer_1-2" data-name="Layer 1"><path d="M449.78,0V30A420.45,420.45,0,1,1,316.14,52,420.8,420.8,0,0,1,449.78,30l0-30m0,0C252.47,0,71.45,130.8,16.36,330.2-49.81,569.69,90.7,817.48,330.2,883.64A450.2,450.2,0,0,0,450.25,900c197.28,0,378.3-130.8,433.39-330.2C949.81,330.31,809.3,82.52,569.8,16.36A450.06,450.06,0,0,0,449.75,0Z" fill="#fff"/><path d="M161.47,701.64c8.42-14.21,16.67-28.53,25.29-42.63q106.84-174.7,213.8-349.33,3.55-5.79,7.26-11.49c5.16-7.89,9.3-8.32,16.48-.26,33.95,38.12,63.21,46.69,108.84,30.89,16.13-5.59,15.27,3.11,15.37,12.7.62,59.52,1.08,119,1.7,178.57,1,91.23,2.08,182.45,2.83,273.67,0,5.32,2.74,11.67-5.35,18.4l-74.91-464.4-5.08-1.94L165.83,704.62Z" fill="#fff"/><path d="M424,234.59c11-38.68,50.37-59.75,90.69-48.52,40.92,11.39,63.42,50.52,51.92,90.32-11,38.17-51.86,59.39-91.48,47.54C435,311.9,413,273.47,424,234.59Zm77.43,1.66c-13.67-3.43-23.72,1.3-26.85,13.43-3.06,11.84,2.68,22,15.9,25.39,12.22,3.18,21.78-2.35,25.34-13.14C519.78,249.93,514,240.68,501.44,236.25Z" fill="#fff"/><path d="M553.06,143.18l-2.57,9.32c-9.21,33.32-15.73,35.77-49.36,20.37-7.91-3.62-7.23-8.32-5.65-14.13,5.25-19.27,10.64-38.5,15.94-57.76,4.84-17.61,17.92-11.28,29.21-8.28,11.55,3.08,25.34,5.16,20.11,22.52-2.79,9.25-5.19,18.62-7.76,27.94Z" fill="#fff"/></g></g></svg>
